<svg width="51" height="50" viewBox="0 0 51 50" fill="none" xmlns="http://www.w3.org/2000/svg">
<path d="M38.4397 0H11.8772C5.40511 0 0.158447 5.24666 0.158447 11.7188V38.2812C0.158447 44.7533 5.40511 50 11.8772 50H38.4397C44.9118 50 50.1584 44.7533 50.1584 38.2812V11.7188C50.1584 5.24666 44.9118 0 38.4397 0Z" fill="white"/>
<path d="M38.4397 0H11.8772C5.40511 0 0.158447 5.24666 0.158447 11.7188V38.2812C0.158447 44.7533 5.40511 50 11.8772 50H38.4397C44.9118 50 50.1584 44.7533 50.1584 38.2812V11.7188C50.1584 5.24666 44.9118 0 38.4397 0Z" fill="#0A66C2"/>
<path d="M36.2356 42.5166H41.9524C42.1596 42.5166 42.3582 42.4343 42.5048 42.2878C42.6513 42.1414 42.7336 41.9427 42.7336 41.7355L42.7366 29.657C42.7366 23.3439 41.3762 18.4914 33.9987 18.4914C31.1942 18.3871 28.5495 19.8328 27.1223 22.2469C27.1153 22.2586 27.1047 22.2677 27.0921 22.2728C27.0794 22.278 27.0654 22.2788 27.0523 22.2752C27.0391 22.2717 27.0275 22.2639 27.0191 22.2531C27.0108 22.2423 27.0062 22.2291 27.0061 22.2154V19.8555C27.0061 19.6483 26.9238 19.4496 26.7773 19.303C26.6308 19.1565 26.4321 19.0742 26.2249 19.0742H20.7997C20.5925 19.0742 20.3937 19.1565 20.2472 19.303C20.1007 19.4496 20.0184 19.6483 20.0184 19.8555V41.7344C20.0184 41.9416 20.1007 42.1403 20.2472 42.2868C20.3937 42.4333 20.5925 42.5156 20.7997 42.5156H26.5161C26.7233 42.5156 26.922 42.4333 27.0685 42.2868C27.215 42.1403 27.2973 41.9416 27.2973 41.7344V30.9193C27.2973 27.8613 27.8774 24.8998 31.6686 24.8998C35.4059 24.8998 35.4543 28.399 35.4543 31.1174V41.7354C35.4543 41.9426 35.5367 42.1413 35.6832 42.2878C35.8297 42.4343 36.0284 42.5166 36.2356 42.5166ZM7.58032 11.6461C7.58032 13.9633 9.48794 15.8699 11.8053 15.8699C14.1221 15.8697 16.0286 13.9619 16.0286 11.6451C16.0282 9.32832 14.1215 7.42188 11.8045 7.42188C9.48696 7.42188 7.58032 9.32891 7.58032 11.6461ZM8.9395 42.5166H14.6635C14.8707 42.5166 15.0694 42.4343 15.216 42.2878C15.3625 42.1413 15.4448 41.9426 15.4448 41.7354V19.8555C15.4448 19.6483 15.3625 19.4496 15.216 19.303C15.0694 19.1565 14.8707 19.0742 14.6635 19.0742H8.9395C8.7323 19.0742 8.53359 19.1565 8.38707 19.303C8.24056 19.4496 8.15825 19.6483 8.15825 19.8555V41.7354C8.15825 41.9426 8.24056 42.1413 8.38707 42.2878C8.53359 42.4343 8.7323 42.5166 8.9395 42.5166Z" fill="white"/>
</svg>
