<svg width="51" height="50" viewBox="0 0 51 50" fill="none" xmlns="http://www.w3.org/2000/svg">
<path d="M38.4397 0H11.8772C5.40511 0 0.158447 5.24666 0.158447 11.7188V38.2812C0.158447 44.7533 5.40511 50 11.8772 50H38.4397C44.9118 50 50.1584 44.7533 50.1584 38.2812V11.7188C50.1584 5.24666 44.9118 0 38.4397 0Z" fill="url(#paint0_radial_78_1230)"/>
<path d="M38.4397 0H11.8772C5.40511 0 0.158447 5.24666 0.158447 11.7188V38.2812C0.158447 44.7533 5.40511 50 11.8772 50H38.4397C44.9118 50 50.1584 44.7533 50.1584 38.2812V11.7188C50.1584 5.24666 44.9118 0 38.4397 0Z" fill="url(#paint1_radial_78_1230)"/>
<path d="M25.1602 5.46875C19.8559 5.46875 19.1901 5.49199 17.1069 5.58672C15.0276 5.68203 13.6083 6.01113 12.3665 6.49414C11.0817 6.99297 9.99204 7.66035 8.90649 8.74629C7.81997 9.83203 7.15259 10.9217 6.6522 12.2059C6.16782 13.448 5.83833 14.868 5.74478 16.9463C5.65161 19.0297 5.6272 19.6957 5.6272 25.0002C5.6272 30.3047 5.65063 30.9684 5.74517 33.0516C5.84087 35.1309 6.16997 36.5502 6.65259 37.792C7.15181 39.0768 7.81919 40.1664 8.90513 41.252C9.99048 42.3385 11.0801 43.0074 12.3639 43.5062C13.6067 43.9893 15.0262 44.3184 17.1051 44.4137C19.1885 44.5084 19.8538 44.5316 25.1579 44.5316C30.4627 44.5316 31.1264 44.5084 33.2096 44.4137C35.2889 44.3184 36.7098 43.9893 37.9526 43.5062C39.2368 43.0074 40.3249 42.3385 41.41 41.252C42.4965 40.1664 43.1637 39.0768 43.6643 37.7926C44.1444 36.5502 44.4741 35.1305 44.5717 33.052C44.6653 30.9688 44.6897 30.3047 44.6897 25.0002C44.6897 19.6957 44.6653 19.0301 44.5717 16.9467C44.4741 14.8674 44.1444 13.4482 43.6643 12.2064C43.1637 10.9217 42.4965 9.83203 41.41 8.74629C40.3237 7.65996 39.2372 6.99258 37.9514 6.49434C36.7063 6.01113 35.2862 5.68184 33.2069 5.58672C31.1235 5.49199 30.4602 5.46875 25.1542 5.46875H25.1602ZM23.4081 8.98848C23.9282 8.9877 24.5084 8.98848 25.1602 8.98848C30.3752 8.98848 30.9932 9.00723 33.0526 9.10078C34.9569 9.18789 35.9905 9.50605 36.679 9.77344C37.5905 10.1273 38.2403 10.5506 38.9235 11.2344C39.6071 11.918 40.0301 12.5689 40.385 13.4805C40.6524 14.168 40.9709 15.2016 41.0577 17.1059C41.1512 19.1648 41.1715 19.7832 41.1715 24.9957C41.1715 30.2082 41.1512 30.8268 41.0577 32.8855C40.9706 34.7898 40.6524 35.8234 40.385 36.5111C40.0311 37.4227 39.6071 38.0717 38.9235 38.7549C38.2399 39.4385 37.5909 39.8615 36.679 40.2156C35.9913 40.4842 34.9569 40.8016 33.0526 40.8887C30.9936 40.9822 30.3752 41.0025 25.1602 41.0025C19.945 41.0025 19.3268 40.9822 17.268 40.8887C15.3637 40.8008 14.3301 40.4826 13.6411 40.2152C12.7297 39.8611 12.0786 39.4381 11.395 38.7545C10.7114 38.0709 10.2883 37.4215 9.93345 36.5096C9.66606 35.8219 9.34751 34.7883 9.26079 32.884C9.16724 30.825 9.14849 30.2066 9.14849 24.9908C9.14849 19.7752 9.16724 19.16 9.26079 17.101C9.3479 15.1967 9.66606 14.1631 9.93345 13.4746C10.2875 12.5631 10.7114 11.9121 11.3952 11.2285C12.0788 10.5449 12.7297 10.1217 13.6413 9.76699C14.3297 9.49844 15.3637 9.18105 17.268 9.09355C19.0698 9.01211 19.768 8.98769 23.4081 8.98359V8.98848ZM35.586 12.2314C34.292 12.2314 33.2422 13.2803 33.2422 14.5744C33.2422 15.8684 34.292 16.9182 35.586 16.9182C36.8799 16.9182 37.9297 15.8684 37.9297 14.5744C37.9297 13.2805 36.8799 12.2307 35.586 12.2307V12.2314ZM25.1602 14.9699C19.6211 14.9699 15.1301 19.4609 15.1301 25.0002C15.1301 30.5395 19.6211 35.0283 25.1602 35.0283C30.6995 35.0283 35.1889 30.5395 35.1889 25.0002C35.1889 19.4611 30.6991 14.9699 25.1598 14.9699H25.1602ZM25.1602 18.4896C28.7557 18.4896 31.6708 21.4043 31.6708 25.0002C31.6708 28.5957 28.7557 31.5107 25.1602 31.5107C21.5645 31.5107 18.6499 28.5957 18.6499 25.0002C18.6499 21.4043 21.5645 18.4896 25.1602 18.4896Z" fill="white"/>
<defs>
<radialGradient id="paint0_radial_78_1230" cx="0" cy="0" r="1" gradientUnits="userSpaceOnUse" gradientTransform="translate(13.4397 53.851) rotate(-90) scale(49.5537 46.0889)">
<stop stop-color="#FFDD55"/>
<stop offset="0.1" stop-color="#FFDD55"/>
<stop offset="0.5" stop-color="#FF543E"/>
<stop offset="1" stop-color="#C837AB"/>
</radialGradient>
<radialGradient id="paint1_radial_78_1230" cx="0" cy="0" r="1" gradientUnits="userSpaceOnUse" gradientTransform="translate(-8.21675 3.60176) rotate(78.681) scale(22.1508 91.3062)">
<stop stop-color="#3771C8"/>
<stop offset="0.128" stop-color="#3771C8"/>
<stop offset="1" stop-color="#6600FF" stop-opacity="0"/>
</radialGradient>
</defs>
</svg>
