<svg width="51" height="50" viewBox="0 0 51 50" fill="none" xmlns="http://www.w3.org/2000/svg">
<path d="M25.8416 0C19.2126 0 12.8494 2.63555 8.16577 7.32227C3.47734 12.0108 0.842851 18.3695 0.841553 25C0.841553 31.6277 3.47827 37.991 8.16577 42.6777C12.8494 47.3645 19.2126 50 25.8416 50C32.4705 50 38.8337 47.3645 43.5173 42.6777C48.2048 37.991 50.8416 31.6277 50.8416 25C50.8416 18.3723 48.2048 12.009 43.5173 7.32227C38.8337 2.63555 32.4705 0 25.8416 0Z" fill="url(#paint0_linear_78_1235)"/>
<path d="M12.1578 24.7361C19.4469 21.5611 24.3063 19.4677 26.7359 18.4564C33.6813 15.5685 35.1227 15.0669 36.0641 15.05C36.2711 15.0466 36.732 15.0978 37.0328 15.341C37.2828 15.546 37.3531 15.8234 37.3883 16.0181C37.4195 16.2126 37.4625 16.656 37.4273 17.0021C37.0523 20.9552 35.4234 30.5482 34.5953 34.9759C34.2477 36.8494 33.5562 37.4775 32.8883 37.5388C31.4352 37.6724 30.3336 36.5794 28.9273 35.658C26.7281 34.2154 25.4859 33.3177 23.3492 31.9103C20.8805 30.2837 22.482 29.3896 23.8883 27.9287C24.2555 27.5462 30.6539 21.7279 30.775 21.2001C30.7906 21.1341 30.8063 20.888 30.6578 20.7584C30.5133 20.6283 30.2984 20.6728 30.1422 20.708C29.9195 20.758 26.4078 23.0814 19.5953 27.6779C18.5992 28.363 17.6969 28.697 16.8844 28.6794C15.9938 28.6603 14.275 28.1748 12.9977 27.7599C11.4352 27.2509 10.1891 26.9818 10.2984 26.1173C10.3531 25.6673 10.9742 25.2068 12.1578 24.7361Z" fill="white"/>
<defs>
<linearGradient id="paint0_linear_78_1235" x1="2500.84" y1="0" x2="2500.84" y2="5000" gradientUnits="userSpaceOnUse">
<stop stop-color="#2AABEE"/>
<stop offset="1" stop-color="#229ED9"/>
</linearGradient>
</defs>
</svg>
