<svg width="48" height="50" viewBox="0 0 48 50" fill="none" xmlns="http://www.w3.org/2000/svg">
<path d="M47.4387 13.2121V11.4683C45.0092 11.4715 42.6277 10.8712 40.5665 9.73604C42.3911 11.4985 44.7937 12.7138 47.4387 13.2124M34.637 1.99483C34.5752 1.68304 34.5277 1.36916 34.4948 1.05397V0H25.1522V32.7319C25.1374 36.5474 21.6276 39.6371 17.2991 39.6371C16.072 39.6387 14.8616 39.3855 13.7659 38.8979C15.2008 40.5595 17.4668 41.6319 20.0172 41.6319C24.3454 41.6319 27.8555 38.5426 27.8708 34.7267V1.995L34.637 1.99483ZM19.6831 19.5828V17.726C18.9024 17.6318 18.1153 17.5847 17.3274 17.585C7.84497 17.585 0.158447 24.3667 0.158447 32.7319C0.158447 37.9766 3.17935 42.5986 7.76997 45.3174C4.74224 42.5867 2.87681 38.8491 2.87681 34.7266C2.87681 26.4679 10.3678 19.7526 19.6831 19.5828Z" fill="#00F2EA"/>
<path d="M31.81 16.0086C35.459 18.3093 39.9272 19.6629 44.7538 19.6629V13.2124C42.0596 12.706 39.6747 11.4639 37.8815 9.73615C34.8122 8.04615 32.6006 5.25822 31.9522 1.99512H25.186V34.7267C25.1706 38.5425 21.6608 41.6322 17.3325 41.6322C14.7821 41.6322 12.5161 40.5596 11.0811 38.8977C8.5186 37.7567 6.76118 35.4139 6.76118 32.7084C6.76118 28.882 10.2768 25.7796 14.6143 25.7796C15.4454 25.7796 16.2463 25.8937 16.9977 26.1041V19.583C7.68286 19.7529 0.19165 26.468 0.19165 34.7268C0.19165 38.8496 2.05708 42.587 5.08481 45.3179C7.81626 46.936 11.1043 47.8799 14.6422 47.8799C24.1237 47.8799 31.8102 41.098 31.8102 32.7322L31.81 16.0086Z" fill="black"/>
<path d="M34.5283 18.0037C38.1763 20.3046 42.6455 21.6584 47.4722 21.6584V13.4636C46.5587 13.4637 45.6476 13.3796 44.7539 13.2125V19.663C39.9275 19.663 35.4589 18.3094 31.8101 16.0087V32.7322C31.8101 41.0982 24.1234 47.8796 14.6421 47.8796C11.1044 47.8796 7.81616 46.936 5.08472 45.3175C8.20229 48.1301 12.55 49.8748 17.3597 49.8748C26.8417 49.8748 34.5287 43.0934 34.5287 34.727V18.0037H34.5283ZM37.8818 9.73615C36.0173 7.93908 34.7931 5.61667 34.5283 3.04908V1.99512H31.9523C32.6007 5.25839 34.8126 8.04632 37.8818 9.73615ZM11.0816 38.8979C10.04 37.693 9.47691 36.2187 9.47944 34.703C9.47944 30.8768 12.9953 27.7744 17.333 27.7744C18.1412 27.7741 18.9447 27.8836 19.7152 28.0991V19.721C18.8148 19.6122 17.9062 19.5658 16.998 19.5829V26.1039C16.2272 25.8882 15.4232 25.7788 14.6146 25.7794C10.2771 25.7794 6.76147 28.8815 6.76147 32.7082C6.76147 35.4141 8.5187 37.7567 11.0816 38.8979Z" fill="#FF004F"/>
</svg>
