<svg width="51" height="50" viewBox="0 0 51 50" fill="none" xmlns="http://www.w3.org/2000/svg">
<path d="M1.22534 24.7008C1.22417 28.9017 2.33042 33.0037 4.43394 36.6192L1.02417 48.9723L13.7648 45.6576C17.2887 47.5611 21.2369 48.5585 25.2492 48.5587H25.2597C38.5048 48.5587 49.2867 37.8643 49.2923 24.7196C49.2949 18.35 46.7972 12.3605 42.2593 7.85427C37.7222 3.34845 31.688 0.8657 25.2587 0.862793C12.0121 0.862793 1.23101 11.5566 1.22554 24.7008" fill="url(#paint0_linear_78_1231)"/>
<path d="M19.0408 14.3699C18.5748 13.3422 18.0843 13.3214 17.6412 13.3034C17.2783 13.2879 16.8634 13.2891 16.449 13.2891C16.0341 13.2891 15.3601 13.4439 14.7904 14.0612C14.2201 14.679 12.613 16.172 12.613 19.2087C12.613 22.2455 14.8421 25.1802 15.1529 25.5924C15.464 26.0038 19.4562 32.4348 25.7789 34.9088C31.0335 36.9649 32.1029 36.5559 33.2433 36.4528C34.3839 36.3501 36.9238 34.9602 37.4419 33.5189C37.9605 32.0778 37.9605 30.8426 37.805 30.5844C37.6496 30.3273 37.2347 30.1728 36.6126 29.8643C35.9904 29.5556 32.9322 28.0623 32.3621 27.8563C31.7917 27.6505 31.3771 27.5478 30.9623 28.1658C30.5474 28.7829 29.3562 30.1728 28.9931 30.5844C28.6304 30.997 28.2673 31.0484 27.6455 30.7397C27.023 30.43 25.0197 29.779 22.6429 27.6765C20.7937 26.0404 19.5453 24.0201 19.1824 23.4021C18.8195 22.785 19.1435 22.4505 19.4554 22.143C19.7349 21.8664 20.0777 21.4222 20.389 21.062C20.6992 20.7015 20.8027 20.4443 21.0101 20.0327C21.2177 19.6207 21.1138 19.2602 20.9585 18.9515C20.8027 18.6428 19.5939 15.5902 19.0408 14.3699Z" fill="white"/>
<path d="M0.367432 24.693C0.366064 29.0452 1.51196 33.2938 3.69048 37.0388L0.158447 49.8347L13.3559 46.4012C16.9922 48.3684 21.0864 49.4056 25.2524 49.4072H25.2631C38.9834 49.4072 50.1526 38.3281 50.1584 24.7128C50.1608 18.1143 47.5733 11.9095 42.8733 7.24186C38.1727 2.57481 31.9227 0.00271318 25.2631 0C11.5405 0 0.3729 11.0775 0.367432 24.693ZM8.227 36.3938L7.73423 35.6176C5.66274 32.3494 4.56938 28.5727 4.57095 24.6946C4.57524 13.3777 13.8573 4.17054 25.2709 4.17054C30.7983 4.17287 35.9928 6.31085 39.8999 10.1899C43.8067 14.0694 45.9565 19.2264 45.9551 24.7112C45.9501 36.0281 36.6678 45.2364 25.2631 45.2364H25.2549C21.5415 45.2345 17.8995 44.245 14.7233 42.375L13.9674 41.9302L6.13579 43.9676L8.227 36.3938Z" fill="url(#paint1_linear_78_1231)"/>
<defs>
<linearGradient id="paint0_linear_78_1231" x1="2414.43" y1="4811.81" x2="2414.43" y2="0.862793" gradientUnits="userSpaceOnUse">
<stop stop-color="#1FAF38"/>
<stop offset="1" stop-color="#60D669"/>
</linearGradient>
<linearGradient id="paint1_linear_78_1231" x1="2500.16" y1="4983.47" x2="2500.16" y2="0" gradientUnits="userSpaceOnUse">
<stop stop-color="#F9F9F9"/>
<stop offset="1" stop-color="white"/>
</linearGradient>
</defs>
</svg>
