<svg width="71" height="50" viewBox="0 0 71 50" fill="none" xmlns="http://www.w3.org/2000/svg">
<path d="M69.2886 7.79861C68.885 6.29127 68.0977 4.91707 67.005 3.81286C65.9123 2.70864 64.5525 1.91295 63.0609 1.505C57.6 0 35.6219 0 35.6219 0C35.6219 0 13.6427 0.0455554 8.18187 1.55056C6.69021 1.95853 5.33034 2.75427 4.23767 3.85853C3.14501 4.96279 2.35768 6.33705 1.95409 7.84444C0.302312 17.6494 -0.338444 32.59 1.99945 42.0028C2.40308 43.5101 3.19043 44.8843 4.28309 45.9885C5.37575 47.0927 6.7356 47.8884 8.22722 48.2964C13.6881 49.8014 35.6667 49.8014 35.6667 49.8014C35.6667 49.8014 57.6451 49.8014 63.1057 48.2964C64.5973 47.8885 65.9573 47.0928 67.05 45.9886C68.1427 44.8844 68.9301 43.5102 69.3337 42.0028C71.0759 32.1839 71.6128 17.2525 69.2886 7.79861Z" fill="#FF0000"/>
<path d="M28.6262 35.5723L46.8587 24.9007L28.6262 14.229V35.5723Z" fill="white"/>
</svg>
