<svg width="19" height="18" viewBox="0 0 19 18" fill="none" xmlns="http://www.w3.org/2000/svg">
<path d="M18.282 0.217938C18.1808 0.117192 18.0529 0.0474403 17.9134 0.0168824C17.7739 -0.0136755 17.6286 -0.00376885 17.4945 0.0454376L0.994512 6.04544C0.852213 6.09941 0.729702 6.1954 0.643251 6.32065C0.556799 6.44591 0.510498 6.5945 0.510498 6.74669C0.510498 6.89888 0.556799 7.04747 0.643251 7.17272C0.729702 7.29797 0.852213 7.39396 0.994512 7.44794L7.43701 10.0204L12.192 5.25044L13.2495 6.30794L8.47201 11.0854L11.052 17.5279C11.1076 17.6675 11.2038 17.7871 11.3282 17.8714C11.4525 17.9556 11.5993 18.0006 11.7495 18.0004C11.9011 17.9973 12.0481 17.9484 12.1713 17.86C12.2945 17.7716 12.388 17.648 12.4395 17.5054L18.4395 1.00544C18.4906 0.872745 18.5029 0.72826 18.475 0.58883C18.4472 0.4494 18.3802 0.32077 18.282 0.217938Z" fill="white"/>
</svg>
